# Blender 4.0.1
# www.blender.org
mtllib ground.mtl
o Cube
v 40.000000 0.200000 -40.000000
v 40.000000 -0.200000 -40.000000
v 39.763443 0.198706 39.732014
v 40.000000 -0.200000 40.000000
v -40.000000 0.200000 -40.000000
v -40.000000 -0.200000 -40.000000
v -40.000000 0.200000 40.000000
v -40.000000 -0.200000 40.000000
vn -0.0000 1.0000 -0.0000
vn -0.0000 0.5578 0.8300
vn -1.0000 -0.0000 -0.0000
vn -0.0000 -1.0000 -0.0000
vn 0.8600 0.5103 -0.0000
vn -0.0000 -0.0000 -1.0000
vn 0.0034 -0.0000 1.0000
vn 1.0000 -0.0000 0.0030
vt 0.875000 0.500000
vt 0.625000 0.750000
vt 0.625000 0.500000
vt 0.375000 1.000000
vt 0.375000 0.750000
vt 0.625000 0.000000
vt 0.375000 0.250000
vt 0.375000 0.000000
vt 0.375000 0.500000
vt 0.125000 0.750000
vt 0.125000 0.500000
vt 0.625000 0.250000
vt 0.875000 0.750000
vt 0.625000 1.000000
s 0
usemtl Material
f 5/1/1 3/2/1 1/3/1
f 3/2/2 8/4/2 4/5/2
f 7/6/3 6/7/3 8/8/3
f 2/9/4 8/10/4 6/11/4
f 2/9/5 3/2/5 4/5/5
f 5/12/6 2/9/6 6/7/6
f 5/1/1 7/13/1 3/2/1
f 3/2/7 7/14/7 8/4/7
f 7/6/3 5/12/3 6/7/3
f 2/9/4 4/5/4 8/10/4
f 2/9/8 1/3/8 3/2/8
f 5/12/6 1/3/6 2/9/6
